# xmcd CD Database Entry
#
# Track frame offsets:
# 150
# 9306
# 21743
# 32909
# 51462
# 65560
# 83267
# 103485
# 119809
# 141402
# 155591
# 173127
# 192028
# 210090
# 228229
# 246361
# 252306
#
# Disc length: 3555 seconds
#
# Revision: 2
# Processed by: cddbd v1.4PL0 Copyright (c) Steve Scherf et al.
# Submitted via: tcd 2.0b
#
DISCID=f20de111
DTITLE=Nizm - In Due Time
DYEAR=1900
DGENRE=
TTITLE0=Intro
TTITLE1=New Beginning
TTITLE2=Best Kept Secret
TTITLE3=Beautiful
TTITLE4=Reminisce
TTITLE5=Declaration
TTITLE6=The Way It Is
TTITLE7=Viewports
TTITLE8=Before and After
TTITLE9=Suspended In Time
TTITLE10=Windy City Perspective
TTITLE11=Typical Weekend
TTITLE12=Last Man Standing
TTITLE13=Noggin Rockin Musc
TTITLE14=In Due Time
TTITLE15=Outro
TTITLE16=Bonus
EXTD=
EXTT0=
EXTT1=
EXTT2=
EXTT3=
EXTT4=
EXTT5=
EXTT6=
EXTT7=
EXTT8=
EXTT9=
EXTT10=
EXTT11=
EXTT12=
EXTT13=
EXTT14=
EXTT15=
EXTT16=
PLAYORDER=
